# Blender v2.83.1 OBJ File: ''
# www.blender.org
mtllib ikea_console.mtl
o Ikea_Console_Ikea_Console.001
v -0.776734 0.179726 -0.617098
v -0.718012 0.179726 -0.670698
v -0.776734 0.179726 -0.670698
v -0.776734 -0.179726 -0.670698
v -0.718012 -0.179726 -0.617098
v -0.776735 -0.179726 -0.617098
v 0.723159 0.179726 -0.617098
v 0.776734 0.179726 -0.670698
v 0.723159 0.179726 -0.670698
v 0.776734 -0.179726 -0.670698
v 0.723159 -0.179726 -0.617098
v 0.723159 -0.179726 -0.670698
v 0.375436 0.179726 -0.617098
v 0.375436 0.179726 -0.670698
v 0.375436 -0.179726 -0.617098
v 0.375436 -0.179726 -0.670698
v -0.718012 -0.123241 -0.670698
v -0.776734 0.130943 -0.670698
v -0.718012 0.130943 -0.670698
v 0.776734 -0.123241 -0.670698
v 0.723159 0.130943 -0.670698
v 0.776734 0.130943 -0.670698
v -0.718012 0.179726 -0.617098
v -0.392257 0.179726 -0.670698
v -0.718012 -0.179726 -0.670698
v -0.392257 -0.179726 -0.617098
v -0.392256 0.179726 -0.617098
v -0.375192 0.179726 -0.670698
v -0.392257 -0.179726 -0.670698
v -0.375193 -0.179726 -0.617098
v -0.375192 0.179726 -0.617098
v -0.008800 0.179726 -0.670698
v -0.008800 0.179726 -0.617098
v 0.012429 0.179726 -0.670698
v -0.375192 -0.179726 -0.670698
v -0.008800 -0.179726 -0.617098
v -0.008800 -0.179726 -0.670698
v 0.012429 -0.179726 -0.617098
v 0.012429 0.179726 -0.617098
v 0.359970 0.179726 -0.670698
v 0.359970 0.179726 -0.617098
v 0.012429 -0.179726 -0.670698
v 0.359970 -0.179726 -0.617098
v 0.359970 -0.179726 -0.670698
v 0.776734 0.130943 -0.739999
v -0.718012 0.130943 -0.739999
v 0.723159 0.130943 -0.739999
v -0.718012 0.179726 -0.739999
v 0.776734 0.179726 -0.739999
v -0.776734 0.130943 -0.739999
v 0.723159 -0.123241 -0.739999
v 0.723159 -0.123241 -0.670698
v -0.776734 -0.123241 -0.739999
v -0.776734 -0.123241 -0.670698
v 0.723159 -0.179726 -0.739999
v -0.718012 -0.123241 -0.739999
v 0.776734 -0.123241 -0.739999
v -0.776734 -0.179726 -0.739999
v 0.776734 -0.179726 -0.739999
v 0.723159 0.179726 -0.739999
v -0.718012 -0.179726 -0.739999
v -0.776734 0.179726 -0.739999
v 0.359970 -0.179726 -0.258779
v 0.375436 0.179726 -0.258779
v -0.008800 -0.179726 -0.258779
v 0.012429 0.179726 -0.258779
v -0.392257 -0.179726 -0.258779
v -0.375192 0.179726 -0.258779
v 0.776734 -0.179726 -0.617098
v 0.723159 -0.179726 -0.258779
v 0.776735 0.179726 -0.258779
v 0.776735 0.179726 -0.617098
v -0.776735 -0.179726 -0.258779
v -0.718012 0.179726 -0.258779
v -0.776734 0.179726 -0.258779
v -0.718012 0.179726 -0.241809
v -0.718012 -0.179726 -0.258779
v -0.776735 -0.179726 -0.241809
v 0.723159 0.179726 -0.258779
v 0.776735 0.179726 -0.241809
v 0.776734 -0.179726 -0.258779
v 0.723159 -0.179726 -0.241809
v -0.392256 0.179726 -0.258779
v -0.375192 0.179726 -0.241809
v -0.375193 -0.179726 -0.258779
v -0.392257 -0.179726 -0.241809
v -0.008800 0.179726 -0.258779
v 0.012429 0.179726 -0.241809
v 0.012429 -0.179726 -0.258779
v -0.008800 -0.179726 -0.241809
v 0.359970 0.179726 -0.258779
v 0.375436 0.179726 -0.241809
v 0.375436 -0.179726 -0.258779
v 0.359970 -0.179726 -0.241809
v 0.375436 -0.179726 -0.241809
v 0.359970 -0.179726 -0.077718
v 0.359970 0.179726 -0.241809
v 0.375436 0.179726 -0.077718
v 0.012429 -0.179726 -0.241809
v -0.008800 -0.179726 -0.077718
v -0.008800 0.179726 -0.241809
v 0.012429 0.179726 -0.077718
v -0.375193 -0.179726 -0.241809
v -0.392257 -0.179726 -0.077718
v -0.392256 0.179726 -0.241809
v -0.375192 0.179726 -0.077718
v 0.776734 -0.179726 -0.241809
v 0.723159 -0.179726 -0.077718
v 0.723159 0.179726 -0.241809
v 0.776735 0.179726 -0.077718
v -0.718012 -0.179726 -0.241809
v -0.776735 -0.179726 -0.077718
v -0.776734 0.179726 -0.241809
v -0.718012 0.179726 -0.077718
v -0.776734 0.179726 -0.077718
v -0.718012 0.179726 -0.021587
v -0.718012 -0.179726 -0.077718
v -0.776735 -0.179726 -0.021587
v 0.723159 0.179726 -0.077718
v 0.776735 0.179726 -0.021587
v 0.776734 -0.179726 -0.077718
v 0.723159 -0.179726 -0.021587
v -0.392256 0.179726 -0.077718
v -0.375192 0.179726 -0.021587
v -0.375193 -0.179726 -0.077718
v -0.392257 -0.179726 -0.021587
v -0.008800 0.179726 -0.077718
v 0.012429 0.179726 -0.021587
v 0.012429 -0.179726 -0.077718
v -0.008800 -0.179726 -0.021587
v 0.359970 0.179726 -0.077718
v 0.375436 0.179726 -0.021587
v 0.375436 -0.179726 -0.077718
v 0.359970 -0.179726 -0.021587
v 0.012429 -0.179726 -0.021587
v -0.375193 -0.179726 -0.021587
v 0.375436 -0.179726 -0.021587
v -0.718012 -0.179726 -0.021587
v 0.794752 -0.199613 -0.000127
v 0.794752 0.200386 -0.000127
v -0.795247 0.200386 -0.000127
v 0.794752 -0.199613 -0.028086
v -0.795248 -0.199614 -0.028086
v -0.795247 0.200386 -0.028086
v -0.795247 -0.199614 -0.000127
v 0.776734 -0.179726 -0.021587
v -0.776734 0.179726 -0.021587
v 0.723159 0.179726 -0.021587
v -0.392256 0.179726 -0.021587
v -0.008800 0.179726 -0.021587
v 0.359970 0.179726 -0.021587
v 0.794752 0.200386 -0.028086
vn -0.0000 1.0000 0.0000
vn 0.0000 -1.0000 0.0000
vn 0.0000 0.0000 -1.0000
vn -1.0000 0.0000 0.0000
vn 1.0000 0.0000 0.0000
vn 0.0000 0.0000 1.0000
usemtl None
s 1
f 1//1 2//1 3//1
f 4//2 5//2 6//2
f 7//1 8//1 9//1
f 10//2 11//2 12//2
f 13//1 9//1 14//1
f 12//2 15//2 16//2
f 17//3 18//3 19//3
f 20//3 21//3 22//3
f 23//1 24//1 2//1
f 25//2 26//2 5//2
f 27//1 28//1 24//1
f 29//2 30//2 26//2
f 31//1 32//1 28//1
f 33//1 34//1 32//1
f 35//2 36//2 30//2
f 37//2 38//2 36//2
f 39//1 40//1 34//1
f 41//1 14//1 40//1
f 42//2 43//2 38//2
f 16//2 43//2 44//2
f 21//2 45//2 22//2
f 18//2 46//2 19//2
f 9//4 47//4 21//4
f 19//5 48//5 2//5
f 22//5 49//5 8//5
f 3//4 50//4 18//4
f 20//1 51//1 52//1
f 17//1 53//1 54//1
f 52//4 55//4 12//4
f 25//5 56//5 17//5
f 10//5 57//5 20//5
f 54//4 58//4 4//4
f 12//2 59//2 10//2
f 8//1 60//1 9//1
f 4//2 61//2 25//2
f 2//1 62//1 3//1
f 45//3 60//3 49//3
f 46//3 62//3 48//3
f 59//3 51//3 57//3
f 61//3 53//3 56//3
f 15//2 63//2 43//2
f 41//1 64//1 13//1
f 38//2 65//2 36//2
f 33//1 66//1 39//1
f 30//2 67//2 26//2
f 27//1 68//1 31//1
f 69//2 70//2 11//2
f 7//1 71//1 72//1
f 5//2 73//2 6//2
f 1//1 74//1 23//1
f 75//1 76//1 74//1
f 77//2 78//2 73//2
f 79//1 80//1 71//1
f 81//2 82//2 70//2
f 83//1 84//1 68//1
f 85//2 86//2 67//2
f 87//1 88//1 66//1
f 89//2 90//2 65//2
f 91//1 92//1 64//1
f 93//2 94//2 63//2
f 95//2 96//2 94//2
f 97//1 98//1 92//1
f 99//2 100//2 90//2
f 101//1 102//1 88//1
f 103//2 104//2 86//2
f 105//1 106//1 84//1
f 107//2 108//2 82//2
f 109//1 110//1 80//1
f 111//2 112//2 78//2
f 113//1 114//1 76//1
f 115//1 116//1 114//1
f 117//2 118//2 112//2
f 119//1 120//1 110//1
f 121//2 122//2 108//2
f 123//1 124//1 106//1
f 125//2 126//2 104//2
f 127//1 128//1 102//1
f 129//2 130//2 100//2
f 131//1 132//1 98//1
f 133//2 134//2 96//2
f 128//1 131//1 102//1
f 129//2 134//2 135//2
f 125//2 130//2 136//2
f 124//1 127//1 106//1
f 132//1 119//1 98//1
f 133//2 122//2 137//2
f 117//2 126//2 138//2
f 116//1 123//1 114//1
f 88//1 91//1 66//1
f 89//2 94//2 99//2
f 85//2 90//2 103//2
f 84//1 87//1 68//1
f 92//1 79//1 64//1
f 93//2 82//2 95//2
f 77//2 86//2 111//2
f 76//1 83//1 74//1
f 139//6 140//6 141//6
f 142//3 143//3 144//3
f 143//4 145//4 141//4
f 144//1 141//1 140//1
f 140//5 139//5 142//5
f 142//2 139//2 145//2
f 1//1 23//1 2//1
f 4//2 25//2 5//2
f 7//1 72//1 8//1
f 10//2 69//2 11//2
f 13//1 7//1 9//1
f 12//2 11//2 15//2
f 64//5 93//5 13//5
f 17//3 54//3 18//3
f 20//3 52//3 21//3
f 11//6 7//6 15//6
f 13//6 15//6 7//6
f 23//1 27//1 24//1
f 25//2 29//2 26//2
f 32//3 34//3 37//3
f 37//3 34//3 42//3
f 42//3 34//3 44//3
f 26//6 23//6 5//6
f 23//6 26//6 27//6
f 27//1 31//1 28//1
f 29//2 35//2 30//2
f 40//3 44//3 34//3
f 14//3 44//3 40//3
f 44//3 14//3 16//3
f 31//1 33//1 32//1
f 33//1 39//1 34//1
f 35//2 37//2 36//2
f 37//2 42//2 38//2
f 32//3 37//3 28//3
f 37//3 35//3 28//3
f 28//3 35//3 24//3
f 24//3 35//3 29//3
f 29//3 19//3 24//3
f 19//3 29//3 17//3
f 36//6 33//6 30//6
f 30//6 33//6 31//6
f 39//1 41//1 40//1
f 41//1 13//1 14//1
f 42//2 44//2 43//2
f 16//2 15//2 43//2
f 14//3 21//3 16//3
f 21//3 52//3 16//3
f 14//3 9//3 21//3
f 16//3 52//3 12//3
f 24//3 19//3 2//3
f 17//3 29//3 25//3
f 43//6 39//6 38//6
f 43//6 41//6 39//6
f 21//2 47//2 45//2
f 18//2 50//2 46//2
f 9//4 60//4 47//4
f 19//5 46//5 48//5
f 22//5 45//5 49//5
f 3//4 62//4 50//4
f 20//1 57//1 51//1
f 17//1 56//1 53//1
f 52//4 51//4 55//4
f 25//5 61//5 56//5
f 10//5 59//5 57//5
f 54//4 53//4 58//4
f 12//2 55//2 59//2
f 8//1 49//1 60//1
f 4//2 58//2 61//2
f 2//1 48//1 62//1
f 45//3 47//3 60//3
f 46//3 50//3 62//3
f 59//3 55//3 51//3
f 61//3 58//3 53//3
f 91//4 41//4 63//4
f 15//2 93//2 63//2
f 41//1 91//1 64//1
f 33//4 36//4 65//4
f 87//4 33//4 65//4
f 38//2 89//2 65//2
f 33//1 87//1 66//1
f 39//5 89//5 38//5
f 66//5 89//5 39//5
f 68//5 85//5 31//5
f 30//2 85//2 67//2
f 27//1 83//1 68//1
f 27//4 26//4 83//4
f 11//4 70//4 7//4
f 74//5 77//5 5//5
f 110//5 146//5 121//5
f 147//4 112//4 118//4
f 112//4 147//4 115//4
f 93//5 15//5 13//5
f 79//4 7//4 70//4
f 23//5 74//5 5//5
f 110//5 121//5 80//5
f 112//4 115//4 78//4
f 69//2 81//2 70//2
f 7//1 79//1 71//1
f 5//2 77//2 73//2
f 1//1 75//1 74//1
f 75//1 113//1 76//1
f 77//2 111//2 78//2
f 79//1 109//1 80//1
f 81//2 107//2 82//2
f 113//4 78//4 115//4
f 121//5 107//5 80//5
f 73//4 78//4 113//4
f 75//4 73//4 113//4
f 71//5 80//5 107//5
f 81//5 71//5 107//5
f 83//1 105//1 84//1
f 85//2 103//2 86//2
f 87//1 101//1 88//1
f 89//2 99//2 90//2
f 91//1 97//1 92//1
f 93//2 95//2 94//2
f 94//4 96//4 131//4
f 131//4 97//4 94//4
f 95//2 133//2 96//2
f 97//1 131//1 98//1
f 127//4 101//4 100//4
f 99//2 129//2 100//2
f 101//1 127//1 102//1
f 102//5 129//5 88//5
f 125//5 103//5 84//5
f 106//5 125//5 84//5
f 103//2 125//2 104//2
f 105//1 123//1 106//1
f 86//4 104//4 105//4
f 123//4 105//4 104//4
f 108//4 109//4 82//4
f 72//5 71//5 81//5
f 69//5 72//5 81//5
f 6//4 73//4 75//4
f 75//4 1//4 6//4
f 98//5 133//5 92//5
f 119//4 109//4 108//4
f 114//5 111//5 76//5
f 72//5 69//5 20//5
f 1//4 54//4 6//4
f 107//2 121//2 108//2
f 109//1 119//1 110//1
f 111//2 117//2 112//2
f 113//1 115//1 114//1
f 115//1 147//1 116//1
f 117//2 138//2 118//2
f 119//1 148//1 120//1
f 121//2 146//2 122//2
f 18//4 54//4 1//4
f 22//5 72//5 20//5
f 6//4 54//4 4//4
f 1//4 3//4 18//4
f 72//5 22//5 8//5
f 20//5 69//5 10//5
f 123//1 149//1 124//1
f 125//2 136//2 126//2
f 127//1 150//1 128//1
f 129//2 135//2 130//2
f 131//1 151//1 132//1
f 133//2 137//2 134//2
f 137//6 122//6 132//6
f 132//6 122//6 148//6
f 134//6 128//6 135//6
f 151//6 128//6 134//6
f 134//6 132//6 151//6
f 137//6 132//6 134//6
f 135//6 128//6 150//6
f 135//6 150//6 130//6
f 124//6 130//6 150//6
f 130//6 124//6 136//6
f 126//6 136//6 124//6
f 128//1 151//1 131//1
f 129//2 96//2 134//2
f 124//6 149//6 126//6
f 116//6 126//6 149//6
f 138//6 126//6 116//6
f 125//2 100//2 130//2
f 124//1 150//1 127//1
f 146//5 110//5 120//5
f 148//6 146//6 120//6
f 132//1 148//1 119//1
f 138//6 116//6 118//6
f 133//2 108//2 122//2
f 122//6 146//6 148//6
f 118//6 116//6 147//6
f 117//2 104//2 126//2
f 116//1 149//1 123//1
f 133//5 95//5 92//5
f 117//3 123//3 104//3
f 114//3 123//3 117//3
f 108//3 133//3 119//3
f 133//3 98//3 119//3
f 100//4 101//4 90//4
f 125//3 106//3 100//3
f 100//3 106//3 127//3
f 129//5 99//5 88//5
f 129//3 131//3 96//3
f 102//3 131//3 129//3
f 97//6 88//6 94//6
f 88//1 97//1 91//1
f 89//2 63//2 94//2
f 99//6 94//6 88//6
f 101//6 103//6 90//6
f 84//6 103//6 101//6
f 85//2 65//2 90//2
f 84//1 101//1 87//1
f 95//6 82//6 109//6
f 92//1 109//1 79//1
f 114//5 117//5 111//5
f 105//6 111//6 86//6
f 93//2 70//2 82//2
f 92//6 95//6 109//6
f 76//6 111//6 105//6
f 77//2 67//2 86//2
f 76//1 105//1 83//1
f 26//4 67//4 83//4
f 67//3 74//3 83//3
f 77//3 74//3 67//3
f 70//3 93//3 79//3
f 93//3 64//3 79//3
f 85//5 30//5 31//5
f 85//3 87//3 65//3
f 68//3 87//3 85//3
f 63//4 41//4 43//4
f 89//3 66//3 63//3
f 63//3 66//3 91//3
f 139//6 141//6 145//6
f 142//3 144//3 152//3
f 143//4 141//4 144//4
f 144//1 140//1 152//1
f 140//5 142//5 152//5
f 142//2 145//2 143//2
